<?xml version="1.0" encoding="UTF-8"?>
<svg version="1.1" xmlns="http://www.w3.org/2000/svg" width="520" height="518">
<path d="M0 0 C2.30011345 -0.01203733 4.59765518 -0.06150215 6.8972168 -0.11157227 C8.37702164 -0.12102492 9.85684264 -0.12826548 11.33666992 -0.13305664 C12.01490311 -0.15258896 12.69313629 -0.17212128 13.391922 -0.19224548 C17.23807537 -0.15598964 19.04959897 0.4769085 22.26928711 2.6472168 C24.76647408 5.21294339 26.30222987 7.25545882 27.87573242 10.43725586 C31.18314888 16.85980961 34.83517953 23.03536399 38.53588867 29.23803711 C39.2413551 30.42393812 39.94659218 31.6099756 40.65161133 32.79614258 C42.07636821 35.19304357 43.50189979 37.58948095 44.92797852 39.9855957 C47.91175522 45.00114808 50.88058517 50.02552142 53.84838867 55.05053711 C54.37875732 55.94780518 54.90912598 56.84507324 55.45556641 57.76953125 C57.84881192 61.82001246 60.23776265 65.87287226 62.61401367 69.93334961 C63.02925293 70.64225342 63.44449219 71.35115723 63.87231445 72.08154297 C64.679041 73.45933938 65.484734 74.83774156 66.28930664 76.21679688 C68.45720464 79.91447951 70.67899584 83.56941398 72.96557617 87.19506836 C73.46686035 87.99525391 73.96814453 88.79543945 74.48461914 89.61987305 C75.44565205 91.14857414 76.41543732 92.671824 77.39575195 94.18823242 C82.48169579 102.29506603 84.07062615 109.97533449 81.97338867 119.42553711 C77.50993864 132.4410937 67.73590981 140.5393579 56.97338867 148.42553711 C54.90669973 149.95596723 52.8419747 151.48900263 50.77807617 153.02319336 C49.39447782 154.05168567 48.009021 155.07768203 46.62182617 156.10131836 C43.77368073 158.2237869 41.12648887 160.27192996 38.61401367 162.79272461 C36.97338867 164.42553711 36.97338867 164.42553711 34.97338867 164.42553711 C34.28718836 165.74892343 33.62552406 167.08503659 32.97338867 168.42553711 C32.41651367 169.57022461 32.41651367 169.57022461 31.84838867 170.73803711 C30.47494957 174.95645721 30.19997839 178.53146701 31.91137695 182.72265625 C33.2348031 185.2962704 34.64235303 187.79962615 36.09838867 190.30053711 C36.57276367 191.14745117 37.04713867 191.99436523 37.53588867 192.86694336 C40.76345022 198.56315334 44.26980674 204.028812 47.97338867 209.42553711 C48.57924805 210.30983398 49.18510742 211.19413086 49.80932617 212.10522461 C61.70139769 229.06802713 73.94654944 246.06002576 88.97338867 260.42553711 C91.47019633 262.90187913 93.94305985 265.39387678 96.37573242 267.93334961 C103.39121837 275.17583896 110.91835502 281.37581591 118.97338867 287.42553711 C119.8422168 288.0894043 120.71104492 288.75327148 121.60620117 289.43725586 C135.61475157 299.9107332 150.7363544 309.71753411 166.22338867 317.86303711 C167.17729492 318.37737305 168.13120117 318.89170898 169.11401367 319.42163086 C172.54954096 320.62782009 174.48760243 320.36216111 177.97338867 319.42553711 C187.290665 314.36179997 193.31996531 305.78312868 199.47094727 297.43261719 C208.38859229 285.37759531 219.04600045 271.63492058 234.58276367 268.67553711 C245.10215101 267.57547046 253.82371953 271.45196277 262.59838867 276.80053711 C264.08270901 277.6886493 265.56708707 278.57666504 267.05151367 279.46459961 C267.83977539 279.93929688 268.62803711 280.41399414 269.44018555 280.90307617 C274.06365536 283.68179222 278.70678132 286.427269 283.34838867 289.17553711 C284.68377686 289.97096924 284.68377686 289.97096924 286.04614258 290.7824707 C290.46998574 293.40664567 294.91730599 295.95957484 299.44213867 298.40600586 C305.08184291 301.45689523 310.59357233 304.70140625 316.09838867 307.98803711 C322.0226662 311.52029463 327.94904276 315.01534105 334.02075195 318.28955078 C342.41798704 323.17481395 346.79988896 330.39432628 349.97338867 339.42553711 C351.5335667 353.72447548 351.16405444 368.3113056 344.97338867 381.42553711 C344.70574707 382.02640137 344.43810547 382.62726563 344.16235352 383.24633789 C340.68477732 391.0510212 336.57560005 397.95784841 330.97338867 404.42553711 C330.32128418 405.22749512 330.32128418 405.22749512 329.65600586 406.0456543 C311.90562452 427.55878929 280.06459536 437.33834806 253.25463867 440.13647461 C251.01055375 440.18416896 251.01055375 440.18416896 249.97338867 441.42553711 C246.95271019 441.53927611 243.95580319 441.5897346 240.93432617 441.59350586 C240.02010895 441.59683426 239.10589172 441.60016266 238.16397095 441.60359192 C236.22203068 441.60866774 234.28008166 441.61100004 232.33813477 441.61083984 C229.38176792 441.61301258 226.42578247 441.63112299 223.46948242 441.65014648 C221.58276495 441.65308311 219.6960457 441.6550661 217.80932617 441.65600586 C216.92989349 441.66319138 216.05046082 441.67037689 215.14437866 441.67778015 C210.012097 441.6589176 205.8444345 441.04153499 200.97338867 439.42553711 C199.28987343 439.1687297 197.60194469 438.93929107 195.91088867 438.73803711 C170.21719953 434.59492973 141.31112877 422.20271831 119.97338867 407.42553711 C118.63059133 406.65536657 117.27706121 405.90343818 115.91088867 405.17553711 C88.75601328 390.28122418 63.0398723 372.05249307 39.97338867 351.42553711 C38.54833008 350.15129883 38.54833008 350.15129883 37.09448242 348.85131836 C35.44243644 347.36573808 33.79374587 345.87641395 32.14916992 344.38256836 C30.20173989 342.63093022 28.2204622 340.93239634 26.22338867 339.23803711 C17.88658956 331.97092913 9.93151981 323.97020989 2.79370117 315.52319336 C0.84583542 313.27854978 -1.18268542 311.11871539 -3.22094727 308.95629883 C-9.39177634 302.3884139 -15.03319746 295.54759793 -20.50805664 288.39428711 C-22.18196292 286.22412951 -23.8797561 284.07408759 -25.58129883 281.92553711 C-31.85009909 273.98981152 -37.77567608 266.08078683 -43.02661133 257.42553711 C-44.11592556 255.74767398 -45.20549567 254.06996732 -46.30078125 252.39599609 C-51.18400794 244.91179787 -55.7206891 237.25577852 -60.02661133 229.42553711 C-60.57599365 228.42949463 -60.57599365 228.42949463 -61.13647461 227.41333008 C-71.94916383 207.70313134 -79.91478828 187.35926785 -86.27661133 165.80053711 C-86.51065674 165.02750244 -86.74470215 164.25446777 -86.98583984 163.45800781 C-91.45640431 147.81663841 -92.53873433 132.42407051 -92.47265625 116.23120117 C-92.46413929 113.06094431 -92.49304562 109.89249301 -92.5246582 106.72241211 C-92.58369559 89.98010761 -90.97650749 73.51845426 -84.27661133 57.98803711 C-83.93299561 57.16513184 -83.58937988 56.34222656 -83.23535156 55.49438477 C-78.28853475 43.98298094 -71.78358689 34.41964547 -63.02661133 25.42553711 C-62.20161133 24.53866211 -61.37661133 23.65178711 -60.52661133 22.73803711 C-56.88449173 19.36907648 -53.02229275 16.36293958 -49.02661133 13.42553711 C-48.11975586 12.75844727 -48.11975586 12.75844727 -47.19458008 12.07788086 C-32.86335668 2.36761838 -16.90707031 0.04188073 0 0 Z " fill="#000000" transform="translate(131.026611328125,38.574462890625)"/>
</svg>
